<svg xmlns="http://www.w3.org/2000/svg" viewBox="144.176 193.147 340.2060012207031 188.68732261116367"> <svg xmlns="http://www.w3.org/2000/svg" xmlns:xlink="http://www.w3.org/1999/xlink" version="1.1" id="Livello_1" x="214.176" y="263.147" viewBox="768.7000122070312 715.4000244140625 462.33038330078125 569.1138916015625" xml:space="preserve" height="48.68732261116367" width="39.56470708028387" preserveAspectRatio="xMinYMin" enable-background="new 0 0 2000 2000" style="overflow: visible;"><path class="st0" d="M1143.9,873.5l-0.9-0.7c-5.8-4.6-11.9-8.9-18.3-13L964.2,745.7l3.3,72.7l-198.8-103l1.3,339.2   c0,1.2,0,2.3,0,3.4l0,1.7l0,0c2.5,106,78.3,199.7,186.7,220.6c12.4,2.4,24.6,3.7,36.8,4.1c111.1,3.5,211.5-74,233.3-186.7   c2.4-12.3,3.7-24.6,4.1-36.7C1233.4,987.1,1199.8,917.9,1143.9,873.5z M1081.9,1174.3c-66.4,44.9-156.6,27.5-201.5-39   c-44.9-66.4-27.5-156.6,38.9-201.5c66.4-44.9,156.7-27.5,201.5,39C1165.7,1039.2,1148.3,1129.4,1081.9,1174.3z" style="fill: #62f2af; fill-opacity: 1;"></path><ellipse transform="matrix(0.9776 -0.2104 0.2104 0.9776 -199.3646 234.1216)" class="st0" cx="1000.7" cy="1054" rx="97.1" ry="97.1" style="fill: #62f2af; fill-opacity: 1;"></ellipse></svg> <svg xmlns="http://www.w3.org/2000/svg" x="268.912" y="265.242" viewBox="3.4100000858306885 13.699999809265137 145.47000122070312 44.48999786376953" height="44.48999786376953" width="145.47000122070312" style="overflow: visible;"><g fill="#A6A6A6" fill-opacity="1" style=""><path d="M37.29 57.75L25.80 57.75L12.81 40.70L12.81 57.75L3.41 57.75L3.41 19.14L12.81 19.14L12.81 36.08L25.68 19.14L36.74 19.14L21.78 38.06L37.29 57.75ZM39.88 42.35Q39.88 37.62 41.66 34.05Q43.45 30.47 46.53 28.54Q49.61 26.62 53.41 26.62L53.41 26.62Q56.65 26.62 59.10 27.94Q61.55 29.26 62.87 31.41L62.87 31.41L62.87 27.06L72.27 27.06L72.27 57.75L62.87 57.75L62.87 53.41Q61.49 55.55 59.04 56.87Q56.59 58.19 53.35 58.19L53.35 58.19Q49.61 58.19 46.53 56.24Q43.45 54.28 41.66 50.68Q39.88 47.08 39.88 42.35L39.88 42.35ZM62.87 42.41Q62.87 38.89 60.91 36.85Q58.96 34.81 56.16 34.81L56.16 34.81Q53.35 34.81 51.40 36.82Q49.45 38.83 49.45 42.35L49.45 42.35Q49.45 45.87 51.40 47.93Q53.35 49.99 56.16 49.99L56.16 49.99Q58.96 49.99 60.91 47.96Q62.87 45.92 62.87 42.41L62.87 42.41ZM83.82 23.87Q81.35 23.87 79.78 22.41Q78.21 20.95 78.21 18.81L78.21 18.81Q78.21 16.61 79.78 15.15Q81.35 13.70 83.82 13.70L83.82 13.70Q86.24 13.70 87.81 15.15Q89.38 16.61 89.38 18.81L89.38 18.81Q89.38 20.95 87.81 22.41Q86.24 23.87 83.82 23.87L83.82 23.87ZM79.09 27.06L88.50 27.06L88.50 57.75L79.09 57.75L79.09 27.06ZM104.72 32.17Q106.37 29.64 108.84 28.19Q111.32 26.73 114.34 26.73L114.34 26.73L114.34 36.69L111.76 36.69Q108.24 36.69 106.48 38.20Q104.72 39.71 104.72 43.51L104.72 43.51L104.72 57.75L95.31 57.75L95.31 27.06L104.72 27.06L104.72 32.17ZM132.82 58.19Q128.31 58.19 124.71 56.27Q121.11 54.34 119.05 50.77Q116.98 47.19 116.98 42.41L116.98 42.41Q116.98 37.67 119.07 34.07Q121.16 30.47 124.79 28.54Q128.42 26.62 132.94 26.62L132.94 26.62Q137.44 26.62 141.07 28.54Q144.70 30.47 146.79 34.07Q148.88 37.67 148.88 42.41L148.88 42.41Q148.88 47.13 146.77 50.74Q144.65 54.34 140.99 56.27Q137.33 58.19 132.82 58.19L132.82 58.19ZM132.82 50.05Q135.52 50.05 137.42 48.07Q139.31 46.09 139.31 42.41L139.31 42.41Q139.31 38.72 137.47 36.74Q135.63 34.76 132.94 34.76L132.94 34.76Q130.19 34.76 128.37 36.71Q126.55 38.66 126.55 42.41L126.55 42.41Q126.55 46.09 128.34 48.07Q130.13 50.05 132.82 50.05L132.82 50.05Z" transform="translate(0, 0)"></path></g></svg></svg>