<svg xmlns="http://www.w3.org/2000/svg" viewBox="0 0 200 48" width="200" height="48">
  <!-- Green flame/drop icon -->
  <g transform="translate(8, 8)">
    <path d="M23.9,13.5l-0.9-0.7c-5.8-4.6-11.9-8.9-18.3-13L-14.8,-14.3l3.3,72.7l-198.8-103l1.3,339.2c0,1.2,0,2.3,0,3.4l0,1.7l0,0c2.5,106,78.3,199.7,186.7,220.6c12.4,2.4,24.6,3.7,36.8,4.1c111.1,3.5,211.5-74,233.3-186.7c2.4-12.3,3.7-24.6,4.1-36.7C113.4,127.1,79.8,57.9,23.9,13.5z M-38.1,314.3c-66.4,44.9-156.6,27.5-201.5-39c-44.9-66.4-27.5-156.6,38.9-201.5c66.4-44.9,156.7-27.5,201.5,39C45.7,179.2,28.3,269.4,-38.1,314.3z" 
          fill="#62f2af" 
          transform="scale(0.08, 0.08) translate(50, 50)"/>
    <ellipse cx="16" cy="16" rx="8" ry="8" fill="#62f2af"/>
  </g>
  
  <!-- Kairo text -->
  <g transform="translate(50, 8)" fill="#A6A6A6">
    <path d="M8 32L4 32L0 20L0 32L-4 32L-4 8L0 8L0 20L4 8L8 8L4 24L8 32ZM10 18Q10 15 11 12Q12 9 14 8Q16 7 18 7Q20 7 22 8Q24 9 25 11L25 7L29 7L29 32L25 32L25 28Q24 30 22 31Q20 32 18 32Q16 32 14 31Q12 30 11 27Q10 24 10 18ZM25 18Q25 15 23 13Q21 11 18 11Q15 11 13 13Q11 15 11 18Q11 21 13 23Q15 25 18 25Q21 25 23 23Q25 21 25 18Z"/>
  </g>
</svg>